<mxfile host="app.diagrams.net" agent="Mozilla/5.0 (Windows NT 10.0; Win64; x64) AppleWebKit/537.36 (KHTML, like Gecko) Chrome/130.0.0.0 Safari/537.36" version="24.8.6">
  <diagram name="Page-1" id="ADKWnnteU7iMCM7CeToQ">
    <mxGraphModel grid="1" page="1" gridSize="10" guides="1" tooltips="1" connect="1" arrows="1" fold="1" pageScale="1" pageWidth="1100" pageHeight="850" math="0" shadow="0">
      <root>
        <mxCell id="0" />
        <mxCell id="1" parent="0" />
        <mxCell id="b56n-ArBNDGusgUPnCO9-1" value="" style="rounded=0;whiteSpace=wrap;html=1;" vertex="1" parent="1">
          <mxGeometry x="200" y="350" width="120" height="200" as="geometry" />
        </mxCell>
        <mxCell id="b56n-ArBNDGusgUPnCO9-4" value="MEM" style="text;html=1;align=center;verticalAlign=middle;whiteSpace=wrap;rounded=0;" vertex="1" parent="1">
          <mxGeometry x="240" y="330" width="40" height="20" as="geometry" />
        </mxCell>
        <mxCell id="b56n-ArBNDGusgUPnCO9-5" value="Memory" style="text;html=1;align=center;verticalAlign=middle;whiteSpace=wrap;rounded=0;" vertex="1" parent="1">
          <mxGeometry x="260" y="520" width="60" height="30" as="geometry" />
        </mxCell>
        <mxCell id="b56n-ArBNDGusgUPnCO9-8" value="" style="verticalLabelPosition=bottom;shadow=0;dashed=0;align=center;html=1;verticalAlign=top;shape=mxgraph.electrical.abstract.dac;rounded=0;" vertex="1" parent="1">
          <mxGeometry y="330" width="80" height="40" as="geometry" />
        </mxCell>
        <mxCell id="b56n-ArBNDGusgUPnCO9-9" value="clock" style="text;html=1;align=center;verticalAlign=middle;whiteSpace=wrap;rounded=0;" vertex="1" parent="1">
          <mxGeometry y="335" width="60" height="30" as="geometry" />
        </mxCell>
        <mxCell id="b56n-ArBNDGusgUPnCO9-10" value="" style="verticalLabelPosition=bottom;shadow=0;dashed=0;align=center;html=1;verticalAlign=top;shape=mxgraph.electrical.abstract.dac;rounded=0;" vertex="1" parent="1">
          <mxGeometry y="410" width="80" height="40" as="geometry" />
        </mxCell>
        <mxCell id="b56n-ArBNDGusgUPnCO9-11" value="reset" style="text;html=1;align=center;verticalAlign=middle;whiteSpace=wrap;rounded=0;" vertex="1" parent="1">
          <mxGeometry y="415" width="60" height="30" as="geometry" />
        </mxCell>
        <mxCell id="b56n-ArBNDGusgUPnCO9-12" value="" style="endArrow=none;html=1;rounded=0;" edge="1" parent="1">
          <mxGeometry width="50" height="50" relative="1" as="geometry">
            <mxPoint x="80" y="350" as="sourcePoint" />
            <mxPoint x="120" y="350" as="targetPoint" />
          </mxGeometry>
        </mxCell>
        <mxCell id="b56n-ArBNDGusgUPnCO9-13" value="clock" style="text;html=1;align=center;verticalAlign=middle;whiteSpace=wrap;rounded=0;" vertex="1" parent="1">
          <mxGeometry x="120" y="335" width="30" height="30" as="geometry" />
        </mxCell>
        <mxCell id="b56n-ArBNDGusgUPnCO9-14" value="" style="endArrow=none;html=1;rounded=0;" edge="1" parent="1">
          <mxGeometry width="50" height="50" relative="1" as="geometry">
            <mxPoint x="80" y="430" as="sourcePoint" />
            <mxPoint x="120" y="430" as="targetPoint" />
          </mxGeometry>
        </mxCell>
        <mxCell id="b56n-ArBNDGusgUPnCO9-15" value="reset" style="text;html=1;align=center;verticalAlign=middle;whiteSpace=wrap;rounded=0;" vertex="1" parent="1">
          <mxGeometry x="120" y="415" width="30" height="30" as="geometry" />
        </mxCell>
        <mxCell id="b56n-ArBNDGusgUPnCO9-24" value="clock" style="text;html=1;align=center;verticalAlign=middle;whiteSpace=wrap;rounded=0;" vertex="1" parent="1">
          <mxGeometry x="110" y="510" width="50" height="20" as="geometry" />
        </mxCell>
        <mxCell id="b56n-ArBNDGusgUPnCO9-25" value="" style="endArrow=none;html=1;rounded=0;entryX=0;entryY=0.5;entryDx=0;entryDy=0;" edge="1" parent="1">
          <mxGeometry width="50" height="50" relative="1" as="geometry">
            <mxPoint x="150" y="520" as="sourcePoint" />
            <mxPoint x="200" y="520" as="targetPoint" />
          </mxGeometry>
        </mxCell>
        <mxCell id="b56n-ArBNDGusgUPnCO9-26" value="reset" style="text;html=1;align=center;verticalAlign=middle;whiteSpace=wrap;rounded=0;" vertex="1" parent="1">
          <mxGeometry x="110" y="530" width="50" height="20" as="geometry" />
        </mxCell>
        <mxCell id="b56n-ArBNDGusgUPnCO9-27" value="" style="endArrow=none;html=1;rounded=0;entryX=0;entryY=0.5;entryDx=0;entryDy=0;" edge="1" parent="1">
          <mxGeometry width="50" height="50" relative="1" as="geometry">
            <mxPoint x="150" y="540" as="sourcePoint" />
            <mxPoint x="200" y="540" as="targetPoint" />
          </mxGeometry>
        </mxCell>
        <mxCell id="b56n-ArBNDGusgUPnCO9-28" value="txAddress" style="text;html=1;align=center;verticalAlign=middle;whiteSpace=wrap;rounded=0;" vertex="1" parent="1">
          <mxGeometry x="200" y="350" width="60" height="20" as="geometry" />
        </mxCell>
        <mxCell id="b56n-ArBNDGusgUPnCO9-29" value="txData" style="text;html=1;align=center;verticalAlign=middle;whiteSpace=wrap;rounded=0;" vertex="1" parent="1">
          <mxGeometry x="200" y="370" width="40" height="20" as="geometry" />
        </mxCell>
        <mxCell id="b56n-ArBNDGusgUPnCO9-30" value="outTx" style="text;html=1;align=center;verticalAlign=middle;whiteSpace=wrap;rounded=0;" vertex="1" parent="1">
          <mxGeometry x="280" y="352.5" width="40" height="15" as="geometry" />
        </mxCell>
        <mxCell id="b56n-ArBNDGusgUPnCO9-32" value="txWriteEn" style="text;html=1;align=center;verticalAlign=middle;whiteSpace=wrap;rounded=0;" vertex="1" parent="1">
          <mxGeometry x="200" y="390" width="60" height="20" as="geometry" />
        </mxCell>
        <mxCell id="b56n-ArBNDGusgUPnCO9-33" value="rxAddress" style="text;html=1;align=center;verticalAlign=middle;whiteSpace=wrap;rounded=0;" vertex="1" parent="1">
          <mxGeometry x="200" y="450" width="60" height="20" as="geometry" />
        </mxCell>
        <mxCell id="b56n-ArBNDGusgUPnCO9-34" value="rxData" style="text;html=1;align=center;verticalAlign=middle;whiteSpace=wrap;rounded=0;" vertex="1" parent="1">
          <mxGeometry x="200" y="470" width="40" height="20" as="geometry" />
        </mxCell>
        <mxCell id="b56n-ArBNDGusgUPnCO9-35" value="outRx" style="text;html=1;align=center;verticalAlign=middle;whiteSpace=wrap;rounded=0;" vertex="1" parent="1">
          <mxGeometry x="280" y="492.5" width="40" height="15" as="geometry" />
        </mxCell>
        <mxCell id="b56n-ArBNDGusgUPnCO9-36" value="rxWriteEn" style="text;html=1;align=center;verticalAlign=middle;whiteSpace=wrap;rounded=0;" vertex="1" parent="1">
          <mxGeometry x="200" y="490" width="60" height="20" as="geometry" />
        </mxCell>
        <mxCell id="b56n-ArBNDGusgUPnCO9-48" value="clock" style="text;html=1;align=center;verticalAlign=middle;whiteSpace=wrap;rounded=0;" vertex="1" parent="1">
          <mxGeometry x="200" y="515" width="40" height="10" as="geometry" />
        </mxCell>
        <mxCell id="b56n-ArBNDGusgUPnCO9-49" value="reset" style="text;html=1;align=center;verticalAlign=middle;whiteSpace=wrap;rounded=0;" vertex="1" parent="1">
          <mxGeometry x="200" y="535" width="40" height="10" as="geometry" />
        </mxCell>
        <mxCell id="m7y8xJskW4DswZOQrhM7-2" value="" style="rounded=0;whiteSpace=wrap;html=1;" vertex="1" parent="1">
          <mxGeometry x="200" y="20" width="190" height="245" as="geometry" />
        </mxCell>
        <mxCell id="m7y8xJskW4DswZOQrhM7-10" value="clock" style="text;html=1;align=center;verticalAlign=middle;whiteSpace=wrap;rounded=0;" vertex="1" parent="1">
          <mxGeometry x="110" y="225" width="50" height="20" as="geometry" />
        </mxCell>
        <mxCell id="m7y8xJskW4DswZOQrhM7-11" value="" style="endArrow=none;html=1;rounded=0;entryX=0;entryY=0.5;entryDx=0;entryDy=0;" edge="1" parent="1">
          <mxGeometry width="50" height="50" relative="1" as="geometry">
            <mxPoint x="150" y="235" as="sourcePoint" />
            <mxPoint x="200" y="235" as="targetPoint" />
          </mxGeometry>
        </mxCell>
        <mxCell id="m7y8xJskW4DswZOQrhM7-12" value="reset" style="text;html=1;align=center;verticalAlign=middle;whiteSpace=wrap;rounded=0;" vertex="1" parent="1">
          <mxGeometry x="110" y="245" width="50" height="20" as="geometry" />
        </mxCell>
        <mxCell id="m7y8xJskW4DswZOQrhM7-13" value="" style="endArrow=none;html=1;rounded=0;entryX=0;entryY=0.5;entryDx=0;entryDy=0;" edge="1" parent="1">
          <mxGeometry width="50" height="50" relative="1" as="geometry">
            <mxPoint x="150" y="255" as="sourcePoint" />
            <mxPoint x="200" y="255" as="targetPoint" />
          </mxGeometry>
        </mxCell>
        <mxCell id="m7y8xJskW4DswZOQrhM7-14" value="clock" style="text;html=1;align=center;verticalAlign=middle;whiteSpace=wrap;rounded=0;" vertex="1" parent="1">
          <mxGeometry x="200" y="230" width="40" height="10" as="geometry" />
        </mxCell>
        <mxCell id="m7y8xJskW4DswZOQrhM7-15" value="reset" style="text;html=1;align=center;verticalAlign=middle;whiteSpace=wrap;rounded=0;" vertex="1" parent="1">
          <mxGeometry x="200" y="250" width="40" height="10" as="geometry" />
        </mxCell>
        <mxCell id="m7y8xJskW4DswZOQrhM7-16" value="TransmitterController" style="text;html=1;align=center;verticalAlign=middle;whiteSpace=wrap;rounded=0;" vertex="1" parent="1">
          <mxGeometry x="270" y="245" width="120" height="20" as="geometry" />
        </mxCell>
        <mxCell id="m7y8xJskW4DswZOQrhM7-19" value="" style="verticalLabelPosition=bottom;shadow=0;dashed=0;align=center;html=1;verticalAlign=top;shape=mxgraph.electrical.abstract.dac;rounded=0;" vertex="1" parent="1">
          <mxGeometry x="61" y="20" width="80" height="40" as="geometry" />
        </mxCell>
        <mxCell id="m7y8xJskW4DswZOQrhM7-20" value="uartRx" style="text;html=1;align=center;verticalAlign=middle;whiteSpace=wrap;rounded=0;" vertex="1" parent="1">
          <mxGeometry x="61" y="25" width="60" height="30" as="geometry" />
        </mxCell>
        <mxCell id="m7y8xJskW4DswZOQrhM7-21" value="" style="endArrow=none;html=1;rounded=0;" edge="1" parent="1">
          <mxGeometry width="50" height="50" relative="1" as="geometry">
            <mxPoint x="140" y="40" as="sourcePoint" />
            <mxPoint x="200" y="40" as="targetPoint" />
          </mxGeometry>
        </mxCell>
        <mxCell id="m7y8xJskW4DswZOQrhM7-22" value="" style="verticalLabelPosition=bottom;shadow=0;dashed=0;align=center;html=1;verticalAlign=top;shape=mxgraph.electrical.abstract.dac;rounded=0;" vertex="1" parent="1">
          <mxGeometry x="50" y="60" width="91" height="40" as="geometry" />
        </mxCell>
        <mxCell id="m7y8xJskW4DswZOQrhM7-23" value="sendToVpeEn" style="text;html=1;align=center;verticalAlign=middle;whiteSpace=wrap;rounded=0;" vertex="1" parent="1">
          <mxGeometry x="61" y="65" width="60" height="30" as="geometry" />
        </mxCell>
        <mxCell id="m7y8xJskW4DswZOQrhM7-24" value="" style="endArrow=none;html=1;rounded=0;" edge="1" parent="1">
          <mxGeometry width="50" height="50" relative="1" as="geometry">
            <mxPoint x="140" y="80" as="sourcePoint" />
            <mxPoint x="200" y="80" as="targetPoint" />
          </mxGeometry>
        </mxCell>
        <mxCell id="m7y8xJskW4DswZOQrhM7-25" value="uartRx" style="text;html=1;align=center;verticalAlign=middle;whiteSpace=wrap;rounded=0;" vertex="1" parent="1">
          <mxGeometry x="200" y="25" width="40" height="30" as="geometry" />
        </mxCell>
        <mxCell id="m7y8xJskW4DswZOQrhM7-26" value="sendToVpeEn" style="text;html=1;align=center;verticalAlign=middle;whiteSpace=wrap;rounded=0;" vertex="1" parent="1">
          <mxGeometry x="200" y="65" width="80" height="30" as="geometry" />
        </mxCell>
        <mxCell id="m7y8xJskW4DswZOQrhM7-28" value="" style="endArrow=none;html=1;rounded=0;strokeWidth=3;" edge="1" parent="1">
          <mxGeometry width="50" height="50" relative="1" as="geometry">
            <mxPoint x="320" y="360" as="sourcePoint" />
            <mxPoint x="200" y="180" as="targetPoint" />
            <Array as="points">
              <mxPoint x="360" y="360" />
              <mxPoint x="360" y="300" />
              <mxPoint x="80" y="300" />
              <mxPoint x="80" y="180" />
            </Array>
          </mxGeometry>
        </mxCell>
        <mxCell id="m7y8xJskW4DswZOQrhM7-29" value="" style="endArrow=none;html=1;rounded=0;" edge="1" parent="1">
          <mxGeometry width="50" height="50" relative="1" as="geometry">
            <mxPoint x="131" y="190" as="sourcePoint" />
            <mxPoint x="141" y="170" as="targetPoint" />
          </mxGeometry>
        </mxCell>
        <mxCell id="m7y8xJskW4DswZOQrhM7-30" value="8" style="text;html=1;align=center;verticalAlign=middle;whiteSpace=wrap;rounded=0;" vertex="1" parent="1">
          <mxGeometry x="127" y="167" width="10" height="10" as="geometry" />
        </mxCell>
        <mxCell id="m7y8xJskW4DswZOQrhM7-31" value="data" style="text;html=1;align=center;verticalAlign=middle;whiteSpace=wrap;rounded=0;" vertex="1" parent="1">
          <mxGeometry x="200" y="170" width="30" height="20" as="geometry" />
        </mxCell>
        <mxCell id="m7y8xJskW4DswZOQrhM7-32" value="address" style="text;html=1;align=center;verticalAlign=middle;whiteSpace=wrap;rounded=0;" vertex="1" parent="1">
          <mxGeometry x="340" y="172.5" width="50" height="15" as="geometry" />
        </mxCell>
        <mxCell id="m7y8xJskW4DswZOQrhM7-33" value="" style="endArrow=none;html=1;rounded=0;strokeWidth=3;" edge="1" parent="1">
          <mxGeometry width="50" height="50" relative="1" as="geometry">
            <mxPoint x="390" y="182" as="sourcePoint" />
            <mxPoint x="200" y="360" as="targetPoint" />
            <Array as="points">
              <mxPoint x="431" y="182" />
              <mxPoint x="430" y="290" />
              <mxPoint x="190" y="290" />
              <mxPoint x="190" y="360" />
            </Array>
          </mxGeometry>
        </mxCell>
        <mxCell id="m7y8xJskW4DswZOQrhM7-34" value="writeData" style="text;html=1;align=center;verticalAlign=middle;whiteSpace=wrap;rounded=0;" vertex="1" parent="1">
          <mxGeometry x="330" y="190" width="60" height="15" as="geometry" />
        </mxCell>
        <mxCell id="m7y8xJskW4DswZOQrhM7-37" value="" style="endArrow=none;html=1;rounded=0;strokeWidth=3;" edge="1" parent="1">
          <mxGeometry width="50" height="50" relative="1" as="geometry">
            <mxPoint x="390" y="200" as="sourcePoint" />
            <mxPoint x="200" y="380" as="targetPoint" />
            <Array as="points">
              <mxPoint x="420" y="200" />
              <mxPoint x="420" y="280" />
              <mxPoint x="180" y="280" />
              <mxPoint x="180" y="380" />
            </Array>
          </mxGeometry>
        </mxCell>
        <mxCell id="m7y8xJskW4DswZOQrhM7-38" value="" style="endArrow=none;html=1;rounded=0;" edge="1" parent="1">
          <mxGeometry width="50" height="50" relative="1" as="geometry">
            <mxPoint x="404" y="288" as="sourcePoint" />
            <mxPoint x="414" y="268" as="targetPoint" />
          </mxGeometry>
        </mxCell>
        <mxCell id="m7y8xJskW4DswZOQrhM7-39" value="8" style="text;html=1;align=center;verticalAlign=middle;whiteSpace=wrap;rounded=0;" vertex="1" parent="1">
          <mxGeometry x="400" y="265" width="10" height="10" as="geometry" />
        </mxCell>
        <mxCell id="m7y8xJskW4DswZOQrhM7-40" value="writeEn" style="text;html=1;align=center;verticalAlign=middle;whiteSpace=wrap;rounded=0;" vertex="1" parent="1">
          <mxGeometry x="350" y="210" width="40" height="15" as="geometry" />
        </mxCell>
        <mxCell id="m7y8xJskW4DswZOQrhM7-41" value="" style="endArrow=none;html=1;rounded=0;" edge="1" parent="1">
          <mxGeometry width="50" height="50" relative="1" as="geometry">
            <mxPoint x="390" y="220" as="sourcePoint" />
            <mxPoint x="200" y="400" as="targetPoint" />
            <Array as="points">
              <mxPoint x="400" y="220" />
              <mxPoint x="400" y="270" />
              <mxPoint x="170" y="270" />
              <mxPoint x="170" y="400" />
            </Array>
          </mxGeometry>
        </mxCell>
        <mxCell id="m7y8xJskW4DswZOQrhM7-42" value="vpeTx" style="text;html=1;align=center;verticalAlign=middle;whiteSpace=wrap;rounded=0;" vertex="1" parent="1">
          <mxGeometry x="350" y="30" width="40" height="20" as="geometry" />
        </mxCell>
        <mxCell id="m7y8xJskW4DswZOQrhM7-43" value="" style="verticalLabelPosition=bottom;shadow=0;dashed=0;align=center;html=1;verticalAlign=top;shape=mxgraph.electrical.abstract.dac;rounded=0;" vertex="1" parent="1">
          <mxGeometry x="480" y="20" width="80" height="40" as="geometry" />
        </mxCell>
        <mxCell id="m7y8xJskW4DswZOQrhM7-44" value="uartRx" style="text;html=1;align=center;verticalAlign=middle;whiteSpace=wrap;rounded=0;" vertex="1" parent="1">
          <mxGeometry x="480" y="25" width="60" height="30" as="geometry" />
        </mxCell>
        <mxCell id="m7y8xJskW4DswZOQrhM7-45" value="" style="endArrow=none;html=1;rounded=0;" edge="1" parent="1">
          <mxGeometry width="50" height="50" relative="1" as="geometry">
            <mxPoint x="390" y="40" as="sourcePoint" />
            <mxPoint x="480" y="40" as="targetPoint" />
          </mxGeometry>
        </mxCell>
        <mxCell id="m7y8xJskW4DswZOQrhM7-46" value="" style="verticalLabelPosition=bottom;shadow=0;dashed=0;align=center;html=1;verticalAlign=top;shape=mxgraph.electrical.abstract.dac;rounded=0;" vertex="1" parent="1">
          <mxGeometry x="480" y="60" width="130" height="40" as="geometry" />
        </mxCell>
        <mxCell id="m7y8xJskW4DswZOQrhM7-47" value="sevenSegmentHexTx" style="text;html=1;align=center;verticalAlign=middle;whiteSpace=wrap;rounded=0;" vertex="1" parent="1">
          <mxGeometry x="480" y="65" width="120" height="30" as="geometry" />
        </mxCell>
        <mxCell id="m7y8xJskW4DswZOQrhM7-48" value="" style="endArrow=none;html=1;rounded=0;strokeWidth=3;" edge="1" parent="1">
          <mxGeometry width="50" height="50" relative="1" as="geometry">
            <mxPoint x="390" y="80" as="sourcePoint" />
            <mxPoint x="480" y="80" as="targetPoint" />
          </mxGeometry>
        </mxCell>
        <mxCell id="m7y8xJskW4DswZOQrhM7-49" value="" style="endArrow=none;html=1;rounded=0;" edge="1" parent="1">
          <mxGeometry width="50" height="50" relative="1" as="geometry">
            <mxPoint x="434" y="90" as="sourcePoint" />
            <mxPoint x="444" y="70" as="targetPoint" />
          </mxGeometry>
        </mxCell>
        <mxCell id="m7y8xJskW4DswZOQrhM7-50" value="16" style="text;html=1;align=center;verticalAlign=middle;whiteSpace=wrap;rounded=0;" vertex="1" parent="1">
          <mxGeometry x="430" y="67" width="10" height="10" as="geometry" />
        </mxCell>
        <mxCell id="m7y8xJskW4DswZOQrhM7-51" value="sevenSegmentHex" style="text;html=1;align=center;verticalAlign=middle;whiteSpace=wrap;rounded=0;" vertex="1" parent="1">
          <mxGeometry x="280" y="70" width="110" height="20" as="geometry" />
        </mxCell>
        <mxCell id="m7y8xJskW4DswZOQrhM7-52" value="TX" style="text;html=1;align=center;verticalAlign=middle;whiteSpace=wrap;rounded=0;" vertex="1" parent="1">
          <mxGeometry x="275" y="10" width="30" height="10" as="geometry" />
        </mxCell>
        <mxCell id="m7y8xJskW4DswZOQrhM7-53" value="" style="rounded=0;whiteSpace=wrap;html=1;" vertex="1" parent="1">
          <mxGeometry x="200" y="660" width="190" height="240" as="geometry" />
        </mxCell>
        <mxCell id="m7y8xJskW4DswZOQrhM7-55" value="RX" style="text;html=1;align=center;verticalAlign=middle;whiteSpace=wrap;rounded=0;" vertex="1" parent="1">
          <mxGeometry x="272.5" y="640" width="35" height="20" as="geometry" />
        </mxCell>
        <mxCell id="m7y8xJskW4DswZOQrhM7-62" value="clock" style="text;html=1;align=center;verticalAlign=middle;whiteSpace=wrap;rounded=0;" vertex="1" parent="1">
          <mxGeometry x="110" y="860" width="50" height="20" as="geometry" />
        </mxCell>
        <mxCell id="m7y8xJskW4DswZOQrhM7-63" value="" style="endArrow=none;html=1;rounded=0;entryX=0;entryY=0.5;entryDx=0;entryDy=0;" edge="1" parent="1">
          <mxGeometry width="50" height="50" relative="1" as="geometry">
            <mxPoint x="150" y="870" as="sourcePoint" />
            <mxPoint x="200" y="870" as="targetPoint" />
          </mxGeometry>
        </mxCell>
        <mxCell id="m7y8xJskW4DswZOQrhM7-64" value="reset" style="text;html=1;align=center;verticalAlign=middle;whiteSpace=wrap;rounded=0;" vertex="1" parent="1">
          <mxGeometry x="110" y="880" width="50" height="20" as="geometry" />
        </mxCell>
        <mxCell id="m7y8xJskW4DswZOQrhM7-65" value="" style="endArrow=none;html=1;rounded=0;entryX=0;entryY=0.5;entryDx=0;entryDy=0;" edge="1" parent="1">
          <mxGeometry width="50" height="50" relative="1" as="geometry">
            <mxPoint x="150" y="890" as="sourcePoint" />
            <mxPoint x="200" y="890" as="targetPoint" />
          </mxGeometry>
        </mxCell>
        <mxCell id="m7y8xJskW4DswZOQrhM7-66" value="clock" style="text;html=1;align=center;verticalAlign=middle;whiteSpace=wrap;rounded=0;" vertex="1" parent="1">
          <mxGeometry x="200" y="865" width="40" height="10" as="geometry" />
        </mxCell>
        <mxCell id="m7y8xJskW4DswZOQrhM7-67" value="reset" style="text;html=1;align=center;verticalAlign=middle;whiteSpace=wrap;rounded=0;" vertex="1" parent="1">
          <mxGeometry x="200" y="885" width="40" height="10" as="geometry" />
        </mxCell>
        <mxCell id="m7y8xJskW4DswZOQrhM7-68" value="ReceiverController" style="text;html=1;align=center;verticalAlign=middle;whiteSpace=wrap;rounded=0;" vertex="1" parent="1">
          <mxGeometry x="280" y="880" width="110" height="20" as="geometry" />
        </mxCell>
        <mxCell id="m7y8xJskW4DswZOQrhM7-87" value="uartTx" style="text;html=1;align=center;verticalAlign=middle;whiteSpace=wrap;rounded=0;" vertex="1" parent="1">
          <mxGeometry x="350" y="805" width="40" height="20" as="geometry" />
        </mxCell>
        <mxCell id="m7y8xJskW4DswZOQrhM7-88" value="" style="verticalLabelPosition=bottom;shadow=0;dashed=0;align=center;html=1;verticalAlign=top;shape=mxgraph.electrical.abstract.dac;rounded=0;" vertex="1" parent="1">
          <mxGeometry x="480" y="795" width="80" height="40" as="geometry" />
        </mxCell>
        <mxCell id="m7y8xJskW4DswZOQrhM7-89" value="uartTx" style="text;html=1;align=center;verticalAlign=middle;whiteSpace=wrap;rounded=0;" vertex="1" parent="1">
          <mxGeometry x="480" y="800" width="60" height="30" as="geometry" />
        </mxCell>
        <mxCell id="m7y8xJskW4DswZOQrhM7-90" value="" style="endArrow=none;html=1;rounded=0;" edge="1" parent="1">
          <mxGeometry width="50" height="50" relative="1" as="geometry">
            <mxPoint x="390" y="815" as="sourcePoint" />
            <mxPoint x="480" y="815" as="targetPoint" />
          </mxGeometry>
        </mxCell>
        <mxCell id="m7y8xJskW4DswZOQrhM7-91" value="" style="verticalLabelPosition=bottom;shadow=0;dashed=0;align=center;html=1;verticalAlign=top;shape=mxgraph.electrical.abstract.dac;rounded=0;" vertex="1" parent="1">
          <mxGeometry x="480" y="835" width="130" height="40" as="geometry" />
        </mxCell>
        <mxCell id="m7y8xJskW4DswZOQrhM7-92" value="sevenSegmentHexRx" style="text;html=1;align=center;verticalAlign=middle;whiteSpace=wrap;rounded=0;" vertex="1" parent="1">
          <mxGeometry x="480" y="840" width="120" height="30" as="geometry" />
        </mxCell>
        <mxCell id="m7y8xJskW4DswZOQrhM7-93" value="" style="endArrow=none;html=1;rounded=0;strokeWidth=3;" edge="1" parent="1">
          <mxGeometry width="50" height="50" relative="1" as="geometry">
            <mxPoint x="390" y="855" as="sourcePoint" />
            <mxPoint x="480" y="855" as="targetPoint" />
          </mxGeometry>
        </mxCell>
        <mxCell id="m7y8xJskW4DswZOQrhM7-94" value="" style="endArrow=none;html=1;rounded=0;" edge="1" parent="1">
          <mxGeometry width="50" height="50" relative="1" as="geometry">
            <mxPoint x="434" y="865" as="sourcePoint" />
            <mxPoint x="444" y="845" as="targetPoint" />
          </mxGeometry>
        </mxCell>
        <mxCell id="m7y8xJskW4DswZOQrhM7-95" value="16" style="text;html=1;align=center;verticalAlign=middle;whiteSpace=wrap;rounded=0;" vertex="1" parent="1">
          <mxGeometry x="430" y="842" width="10" height="10" as="geometry" />
        </mxCell>
        <mxCell id="m7y8xJskW4DswZOQrhM7-96" value="sevenSegmentHex" style="text;html=1;align=center;verticalAlign=middle;whiteSpace=wrap;rounded=0;" vertex="1" parent="1">
          <mxGeometry x="280" y="845" width="110" height="20" as="geometry" />
        </mxCell>
        <mxCell id="m7y8xJskW4DswZOQrhM7-105" value="" style="verticalLabelPosition=bottom;shadow=0;dashed=0;align=center;html=1;verticalAlign=top;shape=mxgraph.electrical.abstract.dac;rounded=0;" vertex="1" parent="1">
          <mxGeometry x="61" y="785" width="80" height="40" as="geometry" />
        </mxCell>
        <mxCell id="m7y8xJskW4DswZOQrhM7-106" value="vpeRx" style="text;html=1;align=center;verticalAlign=middle;whiteSpace=wrap;rounded=0;" vertex="1" parent="1">
          <mxGeometry x="61" y="790" width="60" height="30" as="geometry" />
        </mxCell>
        <mxCell id="m7y8xJskW4DswZOQrhM7-107" value="" style="endArrow=none;html=1;rounded=0;" edge="1" parent="1">
          <mxGeometry width="50" height="50" relative="1" as="geometry">
            <mxPoint x="140" y="805" as="sourcePoint" />
            <mxPoint x="200" y="805" as="targetPoint" />
          </mxGeometry>
        </mxCell>
        <mxCell id="m7y8xJskW4DswZOQrhM7-108" value="" style="verticalLabelPosition=bottom;shadow=0;dashed=0;align=center;html=1;verticalAlign=top;shape=mxgraph.electrical.abstract.dac;rounded=0;" vertex="1" parent="1">
          <mxGeometry x="50" y="825" width="91" height="40" as="geometry" />
        </mxCell>
        <mxCell id="m7y8xJskW4DswZOQrhM7-109" value="sendToUartEn" style="text;html=1;align=center;verticalAlign=middle;whiteSpace=wrap;rounded=0;" vertex="1" parent="1">
          <mxGeometry x="61" y="830" width="60" height="30" as="geometry" />
        </mxCell>
        <mxCell id="m7y8xJskW4DswZOQrhM7-110" value="" style="endArrow=none;html=1;rounded=0;" edge="1" parent="1">
          <mxGeometry width="50" height="50" relative="1" as="geometry">
            <mxPoint x="140" y="845" as="sourcePoint" />
            <mxPoint x="200" y="845" as="targetPoint" />
          </mxGeometry>
        </mxCell>
        <mxCell id="m7y8xJskW4DswZOQrhM7-111" value="vpeRx" style="text;html=1;align=center;verticalAlign=middle;whiteSpace=wrap;rounded=0;" vertex="1" parent="1">
          <mxGeometry x="200" y="790" width="40" height="30" as="geometry" />
        </mxCell>
        <mxCell id="m7y8xJskW4DswZOQrhM7-112" value="sendToUartEn" style="text;html=1;align=center;verticalAlign=middle;whiteSpace=wrap;rounded=0;" vertex="1" parent="1">
          <mxGeometry x="200" y="830" width="80" height="30" as="geometry" />
        </mxCell>
        <mxCell id="m7y8xJskW4DswZOQrhM7-113" value="" style="endArrow=none;html=1;rounded=0;strokeWidth=3;" edge="1" parent="1">
          <mxGeometry width="50" height="50" relative="1" as="geometry">
            <mxPoint x="200" y="675" as="sourcePoint" />
            <mxPoint x="320" y="500" as="targetPoint" />
            <Array as="points">
              <mxPoint x="180" y="675" />
              <mxPoint x="180" y="640" />
              <mxPoint x="390" y="640" />
              <mxPoint x="390" y="500" />
            </Array>
          </mxGeometry>
        </mxCell>
        <mxCell id="m7y8xJskW4DswZOQrhM7-114" value="" style="endArrow=none;html=1;rounded=0;" edge="1" parent="1">
          <mxGeometry width="50" height="50" relative="1" as="geometry">
            <mxPoint x="354" y="510" as="sourcePoint" />
            <mxPoint x="364" y="490" as="targetPoint" />
          </mxGeometry>
        </mxCell>
        <mxCell id="m7y8xJskW4DswZOQrhM7-115" value="8" style="text;html=1;align=center;verticalAlign=middle;whiteSpace=wrap;rounded=0;" vertex="1" parent="1">
          <mxGeometry x="350" y="487" width="10" height="10" as="geometry" />
        </mxCell>
        <mxCell id="m7y8xJskW4DswZOQrhM7-117" value="" style="endArrow=none;html=1;rounded=0;strokeWidth=3;" edge="1" parent="1">
          <mxGeometry width="50" height="50" relative="1" as="geometry">
            <mxPoint x="390" y="680" as="sourcePoint" />
            <mxPoint x="200" y="460" as="targetPoint" />
            <Array as="points">
              <mxPoint x="400" y="680" />
              <mxPoint x="400" y="620" />
              <mxPoint x="90" y="620" />
              <mxPoint x="90" y="460" />
            </Array>
          </mxGeometry>
        </mxCell>
        <mxCell id="m7y8xJskW4DswZOQrhM7-121" value="address" style="text;html=1;align=center;verticalAlign=middle;whiteSpace=wrap;rounded=0;" vertex="1" parent="1">
          <mxGeometry x="340" y="670" width="50" height="15" as="geometry" />
        </mxCell>
        <mxCell id="m7y8xJskW4DswZOQrhM7-122" value="writeData" style="text;html=1;align=center;verticalAlign=middle;whiteSpace=wrap;rounded=0;" vertex="1" parent="1">
          <mxGeometry x="330" y="687.5" width="60" height="15" as="geometry" />
        </mxCell>
        <mxCell id="m7y8xJskW4DswZOQrhM7-123" value="writeEn" style="text;html=1;align=center;verticalAlign=middle;whiteSpace=wrap;rounded=0;" vertex="1" parent="1">
          <mxGeometry x="350" y="707.5" width="40" height="15" as="geometry" />
        </mxCell>
        <mxCell id="m7y8xJskW4DswZOQrhM7-124" value="data" style="text;html=1;align=center;verticalAlign=middle;whiteSpace=wrap;rounded=0;" vertex="1" parent="1">
          <mxGeometry x="200" y="665" width="30" height="20" as="geometry" />
        </mxCell>
        <mxCell id="m7y8xJskW4DswZOQrhM7-125" value="" style="endArrow=none;html=1;rounded=0;strokeWidth=3;" edge="1" parent="1">
          <mxGeometry width="50" height="50" relative="1" as="geometry">
            <mxPoint x="390" y="695" as="sourcePoint" />
            <mxPoint x="200" y="480" as="targetPoint" />
            <Array as="points">
              <mxPoint x="410" y="695" />
              <mxPoint x="410" y="610" />
              <mxPoint x="100" y="610" />
              <mxPoint x="100" y="480" />
            </Array>
          </mxGeometry>
        </mxCell>
        <mxCell id="m7y8xJskW4DswZOQrhM7-127" value="" style="endArrow=none;html=1;rounded=0;" edge="1" parent="1">
          <mxGeometry width="50" height="50" relative="1" as="geometry">
            <mxPoint x="117" y="490" as="sourcePoint" />
            <mxPoint x="127" y="470" as="targetPoint" />
          </mxGeometry>
        </mxCell>
        <mxCell id="m7y8xJskW4DswZOQrhM7-128" value="8" style="text;html=1;align=center;verticalAlign=middle;whiteSpace=wrap;rounded=0;" vertex="1" parent="1">
          <mxGeometry x="113" y="467" width="10" height="10" as="geometry" />
        </mxCell>
        <mxCell id="m7y8xJskW4DswZOQrhM7-129" value="" style="endArrow=none;html=1;rounded=0;" edge="1" parent="1">
          <mxGeometry width="50" height="50" relative="1" as="geometry">
            <mxPoint x="390" y="715" as="sourcePoint" />
            <mxPoint x="200" y="500" as="targetPoint" />
            <Array as="points">
              <mxPoint x="420" y="715" />
              <mxPoint x="420" y="600" />
              <mxPoint x="110" y="600" />
              <mxPoint x="110" y="500" />
            </Array>
          </mxGeometry>
        </mxCell>
      </root>
    </mxGraphModel>
  </diagram>
</mxfile>
